<?xml version="1.0" standalone="no"?>
<!DOCTYPE svg PUBLIC "-//W3C//DTD SVG 20010904//EN"
 "http://www.w3.org/TR/2001/REC-SVG-20010904/DTD/svg10.dtd">
<svg version="1.0" xmlns="http://www.w3.org/2000/svg"
 width="2074.000000pt" height="2156.000000pt" viewBox="0 0 2074.000000 2156.000000"
 preserveAspectRatio="xMidYMid meet">

<g transform="translate(0.000000,2156.000000) scale(0.100000,-0.100000)"
fill="#000000" stroke="none">
<path d="M4167 20540 c-716 -75 -1367 -608 -1722 -1409 -200 -452 -400 -1379
-579 -2691 -55 -399 -124 -968 -161 -1315 -8 -82 -22 -213 -30 -290 -105
-1004 -213 -2358 -285 -3560 -11 -187 -22 -374 -25 -415 -30 -462 -81 -1681
-106 -2535 -14 -463 -18 -1847 -6 -2140 12 -296 24 -436 39 -450 10 -9 134
-14 478 -19 256 -4 483 -9 505 -11 22 -1 112 -6 200 -9 323 -13 925 -62 1315
-107 1495 -172 2798 -489 3862 -939 573 -243 1236 -620 1430 -814 183 -184
291 -411 334 -698 14 -98 16 -166 9 -510 -7 -410 -5 -430 33 -442 10 -4 205
38 433 93 553 132 516 126 779 126 198 0 239 -3 340 -24 394 -81 727 -261
1024 -553 89 -87 101 -96 120 -86 47 25 2424 1614 2465 1647 154 127 261 358
261 561 0 385 -236 750 -664 1029 -109 70 -345 189 -501 251 -79 31 -139 61
-152 76 -25 27 -30 73 -12 105 6 11 313 404 682 872 369 469 1699 2157 2955
3751 1256 1594 2290 2914 2298 2932 8 18 14 58 14 88 0 67 -28 106 -98 133
-72 28 -260 23 -424 -11 -758 -156 -2223 -819 -4333 -1959 -214 -116 -410
-222 -434 -234 -55 -28 -115 -30 -158 -3 -53 32 -69 78 -82 235 -19 239 -23
294 -36 520 -3 50 -7 126 -10 170 -25 421 -32 816 -28 1525 2 377 5 703 7 725
2 22 7 126 10 230 4 105 9 213 11 240 2 28 7 102 10 165 6 115 40 561 51 675
49 510 104 932 184 1411 70 417 88 605 72 758 -26 239 -101 348 -261 378 -261
49 -774 -256 -1491 -886 -452 -397 -768 -704 -1975 -1921 -973 -980 -1390
-1391 -1451 -1431 -22 -15 -26 -15 -48 0 -13 8 -46 57 -72 108 -25 51 -128
248 -226 438 -285 547 -306 587 -458 875 -26 50 -72 137 -103 195 -289 550
-457 870 -497 945 -26 50 -172 326 -325 615 -153 289 -295 559 -317 600 -22
41 -57 107 -78 145 -21 39 -58 108 -82 155 -217 407 -733 1375 -825 1545 -347
641 -832 1026 -1424 1130 -108 19 -329 26 -442 15z m429 -6999 c14 -22 50
-112 80 -201 228 -679 660 -1424 1376 -2372 352 -467 947 -1178 985 -1178 18
0 189 89 433 225 746 416 1409 914 1981 1487 292 293 522 558 872 1007 210
269 299 370 366 413 51 32 70 34 111 13 70 -36 108 -194 141 -575 15 -175 21
-1320 9 -1705 -21 -702 -54 -1431 -96 -2148 -15 -246 -24 -451 -20 -454 3 -4
63 33 133 82 1125 775 2058 1275 2669 1429 161 40 272 56 400 56 193 0 313
-39 406 -132 39 -39 88 -127 88 -160 0 -10 -393 -437 -872 -950 -480 -514
-1126 -1204 -1436 -1536 -310 -331 -565 -602 -567 -602 -2 0 -63 43 -135 96
-600 438 -1307 802 -2025 1042 -759 254 -1600 404 -2465 440 -192 8 -1012 9
-1630 2 -422 -5 -508 1 -619 42 -97 37 -118 72 -155 263 -54 282 -116 961
-156 1695 -5 107 -12 238 -15 290 -67 1257 -67 2688 0 3186 35 260 80 337 141
245z"/>
</g>
</svg>
